<svg xmlns="http://www.w3.org/2000/svg" viewBox="0 0 100 70">
    <path
        style="fill:#0071bd"
        d="M 16.105593,67.627232 14.966296,66.254463 15.233148,39.877232 15.5,13.5 18.450686,13.164212 21.401373,12.828425 22.700686,14.605342 24,16.382259 24,38.178337 V 59.974415 L 59.13573,60.237207 94.271459,60.5 l 0.78932,2.1345 0.78932,2.134501 L 94.368346,66.8845 92.886592,69 55.065741,69 H 17.244889 Z M 29.936772,57.150997 27.5,55.178931 27.15205,45.547796 C 26.768668,34.935905 27.226115,31.916742 29.57293,29.569927 L 31.142857,28 H 34 36.857143 L 38.428571,29.571429 40,31.142857 v 12.306127 12.306127 l -1.255594,1.04205 c -0.690577,0.573128 -2.40653,1.330917 -3.813229,1.683976 l -2.557633,0.641926 z M 46,57.706513 43.5,56.442509 43.22926,35.572912 42.95852,14.703316 44.634248,12.851658 46.309975,11 49.154988,11 52,11 l 2,2 2,2 v 19.545455 19.545454 l -2.454545,2.454546 C 50.770482,59.320428 49.560359,59.506635 46,57.706513 Z M 59.634859,56.92742 57,54.85484 V 43.649926 32.445012 L 58.556704,30.222506 60.113408,28 63.5,28 h 3.386592 L 68.443296,30.222506 70,32.445012 69.984687,43.472506 c -0.01625,11.700695 -0.238644,12.57222 -3.668946,14.37779 -2.970577,1.56359 -3.636861,1.471551 -6.680882,-0.922876 z M 73.492154,56.583063 70.883661,53.97457 71.191831,33.90493 71.5,13.83529 73.44113,12.417645 C 74.508751,11.63794 76.576507,11 78.036142,11 h 2.653883 L 82.345012,12.828741 84,14.657481 v 20.548815 20.548815 l -1.255594,1.04205 c -0.690577,0.573128 -2.467932,1.346328 -3.949677,1.718223 l -2.694083,0.676171 z"
        id="path" />
</svg>